<?xml version="1.0" encoding="UTF-8" standalone="no"?>
<svg width="62px" height="62px" viewBox="0 0 62 62" version="1.1" xmlns="http://www.w3.org/2000/svg" xmlns:xlink="http://www.w3.org/1999/xlink">
    <!-- Generator: Sketch 3.8.3 (29802) - http://www.bohemiancoding.com/sketch -->
    <title>clusters</title>
    <desc>Created with Sketch.</desc>
    <defs>
        <circle id="path-1" cx="28" cy="28" r="28"></circle>
        <filter x="-50%" y="-50%" width="200%" height="200%" filterUnits="objectBoundingBox" id="filter-2">
            <feGaussianBlur stdDeviation="0" in="SourceGraphic"></feGaussianBlur>
        </filter>
        <mask id="mask-3" maskContentUnits="userSpaceOnUse" maskUnits="objectBoundingBox" x="-2.50746269" y="-2.50746269" width="61.0149254" height="61.0149254">
            <rect x="-2.50746269" y="-2.50746269" width="61.0149254" height="61.0149254" fill="white"></rect>
            <use xlink:href="#path-1" fill="black"></use>
        </mask>
    </defs>
    <g id="Pricing" stroke="none" stroke-width="1" fill="none" fill-rule="evenodd">
        <g id="pricing-page-final?" transform="translate(-140.000000, -2254.000000)">
            <g id="block-record-op-copy" transform="translate(0.000000, 1124.000000)">
                <g id="Group-137" transform="translate(135.000000, 801.000000)">
                    <g id="block-feature-included">
                        <g id="Group-117" transform="translate(0.000000, 178.000000)">
                            <g id="clusters" transform="translate(8.000000, 154.000000)">
                                <g id="Oval-15-Copy" filter="url(#filter-2)" stroke-opacity="0.476137908" stroke="#99B2CB" stroke-width="5.01492537">
                                    <use mask="url(#mask-3)" xlink:href="#path-1"></use>
                                </g>
                                <path d="M28,52 C41.254834,52 52,41.254834 52,28 C52,14.745166 41.254834,4 28,4 C14.745166,4 4,14.745166 4,28 C4,41.254834 14.745166,52 28,52 Z M28.2053728,17.5548394 C35.0749897,17.5548394 40.6439145,16.2184799 40.6439145,14.569997 C40.6439145,12.921514 35.0749897,11.5851545 28.2053728,11.5851545 C21.3357559,11.5851545 15.7668311,12.921514 15.7668311,14.569997 C15.7668311,16.2184799 21.3357559,17.5548394 28.2053728,17.5548394 Z M40.6439145,23.8915226 C40.6439145,25.5400056 35.0749897,26.8763651 28.2053728,26.8763651 C21.3357559,26.8763651 15.7668311,25.5400056 15.7668311,23.8915226 C15.7668311,23.1257712 15.7668311,17.3400799 15.7668311,17.3400799 C15.7668311,17.3400799 21.3357559,19.3620699 28.2053728,19.3620699 C35.0749897,19.3620699 40.6439145,17.3400799 40.6439145,17.3400799 C40.6439145,17.3400799 40.6439145,23.0969714 40.6439145,23.8915226 Z M40.5785759,33.1186069 C40.5785759,34.7670899 35.0096511,36.1034494 28.1400342,36.1034494 C21.2704173,36.1034494 15.7014925,34.7670899 15.7014925,33.1186069 C15.7014925,32.3528555 15.7014925,26.5671642 15.7014925,26.5671642 C15.7014925,26.5671642 21.2704173,28.5891542 28.1400342,28.5891542 C35.0096511,28.5891542 40.5785759,26.5671642 40.5785759,26.5671642 C40.5785759,26.5671642 40.5785759,32.3240557 40.5785759,33.1186069 Z M40.5785759,42.3126368 C40.5785759,43.9611197 35.0096511,45.2974792 28.1400342,45.2974792 C21.2704173,45.2974792 15.7014925,43.9611197 15.7014925,42.3126368 C15.7014925,41.5468854 15.7014925,35.761194 15.7014925,35.761194 C15.7014925,35.761194 21.2704173,37.7831841 28.1400342,37.7831841 C35.0096511,37.7831841 40.5785759,35.761194 40.5785759,35.761194 C40.5785759,35.761194 40.5785759,41.5180856 40.5785759,42.3126368 Z" id="Path-8" fill="#99B2CB"></path>
                            </g>
                        </g>
                    </g>
                </g>
            </g>
        </g>
    </g>
</svg>