<?xml version="1.0" encoding="UTF-8" standalone="no"?>
<svg width="44px" height="44px" viewBox="0 0 44 44" version="1.1" xmlns="http://www.w3.org/2000/svg" xmlns:xlink="http://www.w3.org/1999/xlink">
    <!-- Generator: Sketch 3.8.2 (29753) - http://www.bohemiancoding.com/sketch -->
    <title>Group</title>
    <desc>Created with Sketch.</desc>
    <defs></defs>
    <g id="Page-1" stroke="none" stroke-width="1" fill="none" fill-rule="evenodd">
        <g id="Group" transform="translate(1.000000, 1.000000)" stroke="#FD336E" stroke-width="2">
            <path d="M25.3386233,27.1008797 C30.7690176,25.1751068 35.0000003,20.0905582 35.0000003,14 C35.0000003,6.2680135 28.7319868,0 21.0000003,0 C13.2680138,0 7.00000029,6.2680135 7.00000029,14 C7.00000029,19.9904033 10.7623562,25.1020613 16.0529732,27.1008792" id="Oval-3605"></path>
            <path d="M41.3150215,41.0283386 L0.564518146,41.0283386 C0.564518146,41.0283386 -2.05988336,26.7211732 20.7897903,26.7211732 C43.639464,26.7211732 41.3150215,41.0283386 41.3150215,41.0283386 L41.3150215,41.0283386 Z" id="Path-5461"></path>
            <path d="M17.3876956,0.348876953 C17.3876956,0.348876953 17.5209964,12.2160645 7.34155302,14.3010254" id="Path-5462"></path>
            <path d="M17.3190921,0.939453125 C17.3190921,0.939453125 14.3505849,16.2912598 34.8303226,13.9487305" id="Path-5463"></path>
            <polyline id="Path-5465" points="17.424805 26.8939209 20.6300052 32.7945557 23.9348147 26.8950195"></polyline>
            <path d="M33.5405276,35 L28.1181352,35" id="Path-5466"></path>
        </g>
    </g>
</svg>