<?xml version="1.0" encoding="UTF-8" standalone="no"?>
<svg width="32px" height="31px" viewBox="0 0 32 31" version="1.1" xmlns="http://www.w3.org/2000/svg" xmlns:xlink="http://www.w3.org/1999/xlink">
    <!-- Generator: Sketch 3.8.2 (29753) - http://www.bohemiancoding.com/sketch -->
    <title>a</title>
    <desc>Created with Sketch.</desc>
    <defs></defs>
    <g id="Page-1" stroke="none" stroke-width="1" fill="none" fill-rule="evenodd">
        <g id="exclusive-enterprise" transform="translate(0.000000, 1.000000)" stroke-width="2" stroke="#FB366E">
            <g id="exclusive-options">
                <g id="Clipped">
                    <g id="a-link" transform="translate(0.192000, 0.000000)">
                        <path d="M14.907,25.666 L8.16,28.778 C6.838,29.388 5.958,28.7 6.193,27.255 L7.378,19.935 C7.466,19.39 7.23,18.623 6.851,18.225 L1.388,12.483 C0.38,11.423 0.722,10.341 2.146,10.066 L9.603,8.626 C10.143,8.522 10.793,8.041 11.049,7.558 L14.558,0.97 C15.248,-0.324 16.368,-0.323 17.056,0.97 L20.566,7.558 C20.826,8.044 21.466,8.521 22.013,8.626 L29.469,10.066 C30.895,10.342 31.235,11.423 30.226,12.483 L24.763,18.225 C24.383,18.623 24.147,19.389 24.236,19.935 L25.421,27.255 C25.656,28.705 24.771,29.385 23.454,28.778 L16.706,25.666 C16.21,25.436 15.401,25.438 14.907,25.666 Z" id="a"></path>
                    </g>
                </g>
            </g>
        </g>
    </g>
</svg>