<?xml version="1.0" encoding="UTF-8" standalone="no"?>
<svg width="62px" height="62px" viewBox="0 0 62 62" version="1.1" xmlns="http://www.w3.org/2000/svg" xmlns:xlink="http://www.w3.org/1999/xlink">
    <!-- Generator: Sketch 3.8.3 (29802) - http://www.bohemiancoding.com/sketch -->
    <title>extensions-plugins-big</title>
    <desc>Created with Sketch.</desc>
    <defs>
        <circle id="path-1" cx="28" cy="28" r="28"></circle>
        <filter x="-50%" y="-50%" width="200%" height="200%" filterUnits="objectBoundingBox" id="filter-2">
            <feGaussianBlur stdDeviation="0" in="SourceGraphic"></feGaussianBlur>
        </filter>
        <mask id="mask-3" maskContentUnits="userSpaceOnUse" maskUnits="objectBoundingBox" x="-2.50746269" y="-2.50746269" width="61.0149254" height="61.0149254">
            <rect x="-2.50746269" y="-2.50746269" width="61.0149254" height="61.0149254" fill="white"></rect>
            <use xlink:href="#path-1" fill="black"></use>
        </mask>
    </defs>
    <g id="Pricing" stroke="none" stroke-width="1" fill="none" fill-rule="evenodd">
        <g id="pricing-page-final?" transform="translate(-140.000000, -2530.000000)">
            <g id="block-record-op-copy" transform="translate(0.000000, 1124.000000)">
                <g id="Group-137" transform="translate(135.000000, 801.000000)">
                    <g id="block-feature-included">
                        <g id="Group-117" transform="translate(0.000000, 178.000000)">
                            <g id="extensions-plugins-big" transform="translate(8.000000, 430.000000)">
                                <g id="Oval-15" filter="url(#filter-2)" stroke-opacity="0.476137908" stroke="#99B2CB" stroke-width="5.01492537">
                                    <use mask="url(#mask-3)" xlink:href="#path-1"></use>
                                </g>
                                <path d="M28,52 C41.254834,52 52,41.254834 52,28 C52,14.745166 41.254834,4 28,4 C14.745166,4 4,14.745166 4,28 C4,41.254834 14.745166,52 28,52 Z M21.0036533,36.7855001 C20.6398517,36.9902721 20.623785,37.3434414 20.9709139,37.5764379 L26.4415292,41.2483714 C27.129391,41.7100713 28.2681922,41.7344339 28.9769178,41.3077209 L36.1048977,37.0160711 C36.4651562,36.7991649 36.9812261,36.8839328 37.2489284,37.1953504 L38.5607393,38.7213776 C39.6419857,39.9791895 41.6178457,40.2103877 42.9664664,39.2431378 L44.219656,38.3443325 C45.5716255,37.3746808 45.4141681,36.0807632 43.8816827,35.4598445 L41.093963,34.3303413 C40.7102453,34.17487 40.6869202,33.8745456 41.039452,33.6610097 L46.9312127,30.0922466 C47.6447512,29.6600414 47.6378964,28.9646413 46.9222049,28.5427426 L39.5097828,24.1731348 C39.1546023,23.9637566 39.1929915,23.6850069 39.5763504,23.5569364 L42.4238402,22.6056628 C43.9954561,22.0806261 44.1391569,20.9234684 42.7460998,20.0219168 L41.2175401,19.0326714 C39.8239033,18.1307446 37.9872598,18.5386594 37.1057738,19.9590963 L36.4006936,21.0952709 C36.1814467,21.4485678 35.7152638,21.5455622 35.3802262,21.32556 L28.5948695,16.8699595 C27.898652,16.4127887 26.78319,16.4280108 26.0969903,16.9084577 L21.979462,19.7913702 C21.6389521,20.0297802 21.1427733,19.9563809 20.88463,19.6436778 L20.2231035,18.8423346 C19.162049,17.5570213 17.1863464,17.2807026 15.8247229,18.2152252 L14.0234778,19.4514731 C12.6553738,20.3904435 12.7495298,21.7769327 14.209993,22.5359211 L15.5491466,23.2318661 C15.9188576,23.4240013 15.9362218,23.7639124 15.5867654,23.9918388 L8.69216371,28.4887133 C7.99700857,28.9421152 7.99978735,29.6600336 8.7208485,30.1061356 L15.026155,34.0070666 C15.3832159,34.227971 15.8665817,34.1434018 16.1215297,33.796766 L16.8407159,32.8189366 C17.8278345,31.4768173 19.7778935,31.0887378 21.1991504,31.9538752 L22.6581536,32.8419893 C24.0781318,33.7063484 24.0468942,35.07256 22.6155033,35.8782428 L21.0036533,36.7855001 Z" id="Combined-Shape" fill="#99B2CB"></path>
                            </g>
                        </g>
                    </g>
                </g>
            </g>
        </g>
    </g>
</svg>