<?xml version="1.0" encoding="UTF-8" standalone="no"?>
<svg width="34px" height="34px" viewBox="0 0 34 34" version="1.1" xmlns="http://www.w3.org/2000/svg" xmlns:xlink="http://www.w3.org/1999/xlink">
    <!-- Generator: Sketch 3.8.3 (29802) - http://www.bohemiancoding.com/sketch -->
    <title>extension-plugins</title>
    <desc>Created with Sketch.</desc>
    <defs>
        <circle id="path-1" cx="15" cy="15" r="15"></circle>
        <filter x="-50%" y="-50%" width="200%" height="200%" filterUnits="objectBoundingBox" id="filter-2">
            <feGaussianBlur stdDeviation="0" in="SourceGraphic"></feGaussianBlur>
        </filter>
        <mask id="mask-3" maskContentUnits="userSpaceOnUse" maskUnits="objectBoundingBox" x="-1.34328358" y="-1.34328358" width="32.6865672" height="32.6865672">
            <rect x="-1.34328358" y="-1.34328358" width="32.6865672" height="32.6865672" fill="white"></rect>
            <use xlink:href="#path-1" fill="black"></use>
        </mask>
    </defs>
    <g id="Pricing" stroke="none" stroke-width="1" fill="none" fill-rule="evenodd">
        <g id="pricing-page-final?" transform="translate(-670.000000, -864.000000)">
            <g id="Group-168" transform="translate(672.000000, 859.000000)">
                <g id="extension-plugins" transform="translate(0.000000, 7.000000)">
                    <g id="Oval-15" filter="url(#filter-2)" stroke-width="2.68656716" stroke="#8F9DAF">
                        <use mask="url(#mask-3)" xlink:href="#path-1"></use>
                    </g>
                    <path d="M15,27.8571429 C22.1008039,27.8571429 27.8571429,22.1008039 27.8571429,15 C27.8571429,7.89919607 22.1008039,2.14285714 15,2.14285714 C7.89919607,2.14285714 2.14285714,7.89919607 2.14285714,15 C2.14285714,22.1008039 7.89919607,27.8571429 15,27.8571429 Z M11.2519571,19.7065179 C11.0570634,19.8162172 11.0484563,20.005415 11.2344182,20.1302346 L14.1651049,22.0973418 C14.5336023,22.3446811 15.1362826,22.3621829 15.5285091,22.1260292 L19.3419095,19.8300381 C19.5349051,19.7138383 19.8113711,19.7592497 19.9547831,19.9260806 L20.6516407,20.7367338 C21.2341373,21.414351 22.2952745,21.5412791 23.0082846,21.0298982 L23.6985667,20.5348181 C24.4176085,20.0191111 24.3370568,19.3322371 23.4982576,18.9923799 L22.014623,18.3912542 C21.80906,18.307966 21.8016091,18.1440223 21.9854207,18.0326838 L25.1417211,16.1208464 C25.5239739,15.8893079 25.5203017,15.5167721 25.1368955,15.290755 L21.1659551,12.9498937 C20.9756798,12.8377268 20.9868715,12.6915281 21.2016163,12.6197874 L22.7170606,12.1135161 C23.5645187,11.830402 23.6379436,11.2038019 22.8996963,10.7260269 L22.0808251,10.196074 C21.3342339,9.71289892 20.3503178,9.93142468 19.8739345,10.6990743 L19.5003716,11.301038 C19.3829179,11.4903042 19.133177,11.5422655 18.9536926,11.4244071 L15.3087738,9.03097336 C14.9412713,8.789653 14.3481375,8.8007201 13.9805305,9.05810235 L11.7747118,10.6025198 C11.5922958,10.7302394 11.3264857,10.6909184 11.1881946,10.5233988 L10.8338054,10.0941078 C10.2653834,9.40554712 9.20697127,9.25751927 8.47753015,9.75815634 L7.51257737,10.420432 C6.77966454,10.9234519 6.81713315,11.6594725 7.61249623,12.0728149 L8.32989995,12.4456425 C8.52795945,12.5485721 8.53193138,12.734144 8.3500529,12.8527708 L4.65651627,15.2618107 C4.28411173,15.5047046 4.28560036,15.8893037 4.67188312,16.1282869 L8.04972587,18.2180714 C8.2410085,18.336413 8.49995451,18.2911081 8.62968623,18.1147205 L9.02181209,17.5815732 C9.55062565,16.8625807 10.5953001,16.654681 11.3566877,17.1181474 L12.1382966,17.5939229 C12.8989992,18.0569724 12.8822647,18.7888714 12.1154482,19.2204872 L11.2519571,19.7065179 Z" id="Combined-Shape" fill="#8F9DAF"></path>
                </g>
            </g>
        </g>
    </g>
</svg>