<?xml version="1.0" encoding="UTF-8" standalone="no"?>
<svg width="94px" height="79px" viewBox="0 0 94 79" version="1.1" xmlns="http://www.w3.org/2000/svg" xmlns:xlink="http://www.w3.org/1999/xlink">
    <!-- Generator: Sketch 3.8.2 (29753) - http://www.bohemiancoding.com/sketch -->
    <title>Group</title>
    <desc>Created with Sketch.</desc>
    <defs></defs>
    <g id="Page-1" stroke="none" stroke-width="1" fill="none" fill-rule="evenodd">
        <g id="pricing-page" transform="translate(-282.000000, -3774.000000)">
            <g id="block-feature" transform="translate(0.000000, 3733.000000)">
                <g id="illustrations" transform="translate(271.000000, 17.000000)">
                    <g id="Group-6">
                        <g id="Group-72">
                            <g id="Group" transform="translate(12.000000, 25.000000)">
                                <g id="icon-performance" transform="translate(15.668122, 0.000000)">
                                    <path d="M38.1659389,70.2137871 C20.62869,70.2137871 6.36098981,55.8965576 6.36098981,38.2984293 C6.36098981,20.700301 20.62869,6.38307155 38.1659389,6.38307155 C55.7031878,6.38307155 69.9708879,20.700301 69.9708879,38.2984293 C69.9708879,55.8965576 55.7031878,70.2137871 38.1659389,70.2137871" id="Fill-109" fill="#F2F9FB"></path>
                                    <path d="M38.3677413,44.6672028 C36.643913,44.7262462 34.9010018,44.0955987 33.5852311,42.7752604 C31.0659611,40.2472449 31.0659611,36.1489938 33.5852311,33.6212975 C36.104183,31.093282 40.1882566,31.093282 42.7075266,33.6212975 C43.9320171,34.8500387 44.561437,36.4502748 44.5951503,38.0607237" id="Stroke-111" stroke="#1E96C7" stroke-width="1.90174326" stroke-linecap="round"></path>
                                    <path d="M39.8049115,36.5337973 L53.8881429,53.9946895" id="Stroke-113" stroke="#FD336E" stroke-width="1.90174326" stroke-linecap="round"></path>
                                    <path d="M36.4877189,39.8625053 L53.8882066,53.9946257" id="Stroke-115" stroke="#FD336E" stroke-width="1.90174326" stroke-linecap="round"></path>
                                    <path d="M39.8049115,39.8625053 C38.888929,40.7816676 37.4036378,40.7816676 36.4876553,39.8625053 C35.5716728,38.943343 35.5716728,37.4528957 36.4876553,36.5337334 C37.4036378,35.6145711 38.888929,35.6145711 39.8049115,36.5337334 C40.720894,37.4528957 40.720894,38.943343 39.8049115,39.8625053 L39.8049115,39.8625053 Z" id="Stroke-117" stroke="#FD336E" stroke-width="1.90174326" stroke-linecap="round"></path>
                                    <path d="M76.3318777,38.2984293 C76.3318777,59.4500135 59.2443508,76.5968586 38.1659389,76.5968586 C17.0875269,76.5968586 0,59.4500135 0,38.2984293 C0,17.1468451 17.0875269,0 38.1659389,0 C59.2443508,0 76.3318777,17.1468451 76.3318777,38.2984293 L76.3318777,38.2984293 Z" id="Stroke-119" stroke="#1E96C7" stroke-width="1.90174326" stroke-linecap="round"></path>
                                    <path d="M56.7098462,57.0836174 L59.9351861,60.3201538 L59.9908448,60.3201538 C72.0252014,48.2162544 72.0252014,28.5219254 59.9908448,16.4183452 C47.9564881,4.31476488 28.3751352,4.31476488 16.3407785,16.4183452 C4.30642191,28.5219254 4.30642191,48.2162544 16.3407785,60.3201538" id="Stroke-121" stroke="#1E96C7" stroke-width="1.90174326" stroke-linecap="round" stroke-linejoin="round"></path>
                                    <path d="M19.5485621,57.0836174 L16.341033,60.3201538" id="Stroke-123" stroke="#1E96C7" stroke-width="1.90174326" stroke-linecap="round"></path>
                                    <path id="Stroke-125" stroke="#1E96C7" stroke-width="1.90174326" stroke-linecap="round"></path>
                                    <path id="Stroke-127" stroke="#1E96C7" stroke-width="1.90174326" stroke-linecap="round"></path>
                                    <path id="Stroke-129" stroke="#1E96C7" stroke-width="1.90174326" stroke-linecap="round"></path>
                                    <path d="M16.3999039,16.4580479 L19.6252438,19.6945843" id="Stroke-131" stroke="#1E96C7" stroke-width="1.90174326" stroke-linecap="round"></path>
                                    <path d="M59.9350589,16.4549521 L56.709719,19.6914885" id="Stroke-133" stroke="#1E96C7" stroke-width="1.90174326" stroke-linecap="round"></path>
                                    <path d="M50.8127634,25.608915 C56.9660669,31.7835793 57.6985349,41.3377608 53.0101673,48.3170112" id="Stroke-135" stroke="#FD336E" stroke-width="1.90174326" stroke-linecap="round"></path>
                                    <path d="M51.6528593,38.1981513 C51.6693979,40.4443541 51.1325303,42.6937486 50.0416206,44.7226079" id="Stroke-137" stroke="#FD336E" stroke-width="1.90174326" stroke-linecap="round"></path>
                                    <path d="M29.1365138,17.8503553 C37.3126121,14.2174302 47.2208079,15.7634101 53.9227467,22.4882951 C61.835182,30.4281978 62.5530197,42.8534849 56.0768959,51.6075484" id="Stroke-139" stroke="#FD336E" stroke-width="1.90174326" stroke-linecap="round"></path>
                                    <path d="M22.4092264,22.4882313 C23.2084848,21.6861984 24.0535423,20.9578899 24.9354935,20.3029868" id="Stroke-141" stroke="#FD336E" stroke-width="1.90174326" stroke-linecap="round"></path>
                                    <path d="M32.302283,63.821492 C34.1870443,64.25586 36.1497277,64.4853314 38.1658434,64.4853314 C40.2535203,64.4853314 42.2839483,64.239264 44.2300931,63.7745764 L45.9882707,68.1865555 C43.490628,68.8430544 40.8689461,69.1928467 38.1658434,69.1928467 C35.5778747,69.1928467 33.0643296,68.8720974 30.6627379,68.2685779 L32.302283,63.821492 L32.302283,63.821492 Z" id="Stroke-143" stroke="#1E96C7" stroke-width="1.90174326" stroke-linecap="round" stroke-linejoin="round"></path>
                                </g>
                                <g id="Group-2" transform="translate(0.000000, 28.623037)" stroke-width="1.5" fill="#FFFFFF">
                                    <polygon id="Fill-6761" stroke="#2897C5" points="21.5741758 18.1413613 12.5348745 18.1413613 14.7946998 10.5824607 19.3143504 10.5824607"></polygon>
                                    <polygon id="Fill-6762" stroke="#2897C5" points="17.0545251 0 12.5348745 7.55890052 14.7946998 10.5824607 17.0545251 10.5824607 19.3143504 10.5824607 21.5741758 7.55890052"></polygon>
                                    <polygon id="Fill-6763" stroke="#2897C5" points="14.7946998 10.5824607 12.5348745 7.55890052 17.0545251 0 17.0545251 10.5824607"></polygon>
                                    <path d="M29.592036,12.8641904 C25.3006277,10.234449 27.5371015,6.16776047 29.8858133,5.07323168 C32.2352784,3.97870288 35.142167,3.70129123 36.6396779,1.24086911 C38.3194814,8.04387958 36.6924072,17.2158495 29.592036,12.8641904" id="Fill-6764" stroke="#2897C5"></path>
                                    <path d="M29.592036,12.8641904 C25.3006277,10.234449 27.5371015,6.16776047 29.8858133,5.07323168 C32.2352784,3.97870288 35.142167,3.70129123 36.6396779,1.24086911 C38.3194814,8.04387958 36.6924072,17.2158495 29.592036,12.8641904" id="Fill-6765" stroke="#2897C5"></path>
                                    <path d="M6.56418996,6.31651963 L2.29462664,1.98300196 L0.741373362,7.87516492 L0.742126638,7.87592081 C0.956056769,8.67867605 1.78465939,9.16017801 2.58539083,8.94626113 C3.38612227,8.73158835 3.86671179,7.8993534 3.65278166,7.09584228 C3.86671179,7.8993534 4.69606769,8.38161126 5.49679913,8.16693848 C6.29753057,7.95226571 6.77812009,7.12003076 6.56418996,6.31651963" id="Fill-6766" stroke="#2897C5"></path>
                                    <path d="M32.1200273,39.4221607 L32.1200273,26.4495756 C37.1278002,26.4616698 37.3929531,26.7398374 37.3929531,30.5064375 C37.3929531,37.2459532 34.9621343,38.9769414 32.1200273,39.4221607 M41.9126037,30.5064375 C41.9126037,27.9878118 41.584929,24.8818596 39.0290666,23.2105867 C37.2739356,22.0631456 34.9515884,21.9255736 32.1200273,21.9157471 L32.1200273,19.6533681 C32.1200273,18.8181096 31.4450928,18.141588 30.6134771,18.141588 L3.49557314,18.141588 C2.66395742,18.141588 1.98902293,18.8181096 1.98902293,19.6533681 L1.98902293,45.3536299 C1.98902293,47.023391 3.33813865,48.3771901 5.00212336,48.3771901 L29.1069269,48.3771901 C30.7701583,48.3771901 32.1200273,47.023391 32.1200273,45.3536299 L32.1200273,43.9650599 C36.2705731,43.4457634 41.9126037,41.1032601 41.9126037,30.5064375" id="Fill-6767" stroke="#2897C5"></path>
                                    <path d="M26.0938264,33.2591623 C26.0938264,38.2684457 22.0464793,42.3298429 17.0545251,42.3298429 C12.062571,42.3298429 8.0152238,38.2684457 8.0152238,33.2591623 C8.0152238,28.2498789 12.062571,24.1884817 17.0545251,24.1884817 C22.0464793,24.1884817 26.0938264,28.2498789 26.0938264,33.2591623 Z" id="Fill-6768" stroke="#FB366E"></path>
                                    <path d="M20.8209007,30.2356021 C20.8209007,30.6536093 20.4834334,30.9914921 20.0676255,30.9914921 C19.6518177,30.9914921 19.3143504,30.6536093 19.3143504,30.2356021 C19.3143504,29.8183508 19.6518177,29.479712 20.0676255,29.479712 C20.4834334,29.479712 20.8209007,29.8183508 20.8209007,30.2356021" id="Fill-6771" stroke="#FB366E"></path>
                                    <path d="M14.7946998,30.2356021 C14.7946998,30.6536093 14.4572325,30.9914921 14.0414247,30.9914921 C13.6256168,30.9914921 13.2881496,30.6536093 13.2881496,30.2356021 C13.2881496,29.8183508 13.6256168,29.479712 14.0414247,29.479712 C14.4572325,29.479712 14.7946998,29.8183508 14.7946998,30.2356021" id="Fill-6772" stroke="#FB366E"></path>
                                    <path d="M17.0545251,39.3062827 C13.1872107,39.3062827 11.8832915,35.935769 11.8290557,35.7921499 C11.6836736,35.4013547 11.8810317,34.965962 12.2704749,34.8185635 C12.6591648,34.6741885 13.092298,34.869964 13.2391867,35.2577356 C13.2828766,35.3711191 14.2538483,37.7945026 17.0545251,37.7945026 C19.8604749,37.7945026 20.8306932,35.3612925 20.8698635,35.2577356 C21.0197653,34.869964 21.4536517,34.6734326 21.8408352,34.821587 C22.2287718,34.9704974 22.4246234,35.4028665 22.2799945,35.7921499 C22.2257587,35.935769 20.9218395,39.3062827 17.0545251,39.3062827" id="Fill-6773" stroke="#FB366E"></path>
                                    <path d="M3.88765284,3.59085569 C3.61572052,3.85919666 3.27373362,4.06782232 2.88052402,4.17364692 C2.48731441,4.27871564 2.08732533,4.26813318 1.71822052,4.17137925 L2.29824236,1.98232166 L3.88765284,3.59085569 Z" id="Fill-6774" stroke="#2897C5"></path>
                                    <path d="M31.8883199,13.385679 L28.030798,11.0220108 C27.6760055,10.8043145 27.2127413,10.9169421 26.9950448,11.2729663 L26.2101321,12.5632706 L23.3574793,18.1417392 L29.5697391,18.1417392 L31.3527413,15.7145762 L32.1384072,14.4250278 C32.3553504,14.0682477 32.2431124,13.6033753 31.8883199,13.385679" id="Fill-6775" stroke="#2897C5"></path>
                                    <polygon id="Fill-6776" stroke="#2897C5" points="26.2100568 12.5633462 23.3574039 18.1410589 24.3758319 18.1410589 28.5226114 13.9806401"></polygon>
                                    <polygon id="Fill-6777" stroke="#2897C5" points="29.5696638 18.1413613 31.3534192 15.7149542 26.2100568 12.5636486 23.3574039 18.1413613"></polygon>
                                    <path d="M9.70640175,18.1413613 L6.66241703,6.6866034 C6.654131,6.6563678 6.6149607,6.66317081 6.6149607,6.6941623 C6.61872707,7.36614856 6.17203493,7.9859784 5.49710044,8.16739202 C4.83271179,8.34502618 4.14798472,8.04342605 3.81277729,7.47650851 C3.77887991,7.42057264 3.70430568,7.44098168 3.7035524,7.50598822 C3.69375983,8.16512435 3.24932751,8.76832461 2.58493886,8.94595877 C1.90925109,9.12661649 1.21473144,8.81216623 0.884796943,8.22710733 C0.869731441,8.19989529 0.83131441,8.21350131 0.839600437,8.2444928 L3.47003712,18.1413613 L9.70640175,18.1413613 Z" id="Fill-6778" stroke="#2897C5"></path>
                                    <path d="M6.5881441,18.1413613 L3.75507642,7.48028796 C3.74603712,7.4470288 3.70385371,7.4545877 3.70385371,7.48860275 C3.70084061,8.15454188 3.25565502,8.76681283 2.58524017,8.94595877 C1.9155786,9.12510471 1.22482533,8.81670157 0.891877729,8.24071335 C0.875305677,8.21123364 0.834628821,8.22635144 0.843668122,8.25885471 L3.46958515,18.1413613 L6.5881441,18.1413613 Z" id="Fill-6779" stroke="#2897C5"></path>
                                </g>
                            </g>
                        </g>
                    </g>
                </g>
            </g>
        </g>
    </g>
</svg>