<?xml version="1.0" encoding="UTF-8" standalone="no"?>
<svg width="72px" height="82px" viewBox="0 0 72 82" version="1.1" xmlns="http://www.w3.org/2000/svg" xmlns:xlink="http://www.w3.org/1999/xlink">
    <!-- Generator: Sketch 3.8.2 (29753) - http://www.bohemiancoding.com/sketch -->
    <title>icon-global</title>
    <desc>Created with Sketch.</desc>
    <defs></defs>
    <g id="Page-1" stroke="none" stroke-width="1" fill="none" fill-rule="evenodd" stroke-linecap="round">
        <g id="pricing-page" transform="translate(-812.000000, -3776.000000)" stroke-width="1.90174326">
            <g id="block-feature" transform="translate(0.000000, 3733.000000)">
                <g id="illustrations" transform="translate(271.000000, 17.000000)">
                    <g id="Group-73" transform="translate(505.000000, 1.000000)">
                        <g id="Group-55" transform="translate(9.000000, 0.000000)">
                            <g id="icon-global" transform="translate(28.000000, 26.000000)">
                                <path d="M63.1985656,33.9818327 C64.4626833,40.9504382 63.5400136,48.2415936 60.43119,54.7388048" id="Stroke-44" stroke="#F2F9FB"></path>
                                <path d="M40.3065385,7.86221514 C45.2838235,9.44309163 49.9671719,12.2185498 53.9128281,16.1889084 C57.8334615,20.1344064 60.5818326,24.8126534 62.1579412,29.7854024" id="Stroke-46" stroke="#F2F9FB"></path>
                                <path d="M15.6049321,9.62894024 C21.5663348,6.74097211 28.200181,5.72838247 34.6332127,6.59149004" id="Stroke-48" stroke="#F2F9FB"></path>
                                <path d="M39.3715158,6.92427092 C43.7799321,6.0567012 48.3277149,6.08443028 52.7269457,7.00682072" id="Stroke-50" stroke="#F2F9FB"></path>
                                <path d="M15.5870679,54.7389004 C9.56991855,42.164239 11.7427692,26.61651 22.1053032,16.1890996 C25.2052579,13.0697371 28.760371,10.6879044 32.5558914,9.04360159" id="Stroke-52" stroke="#F2F9FB"></path>
                                <path d="M21.3894027,25.2144382 C18.6942443,20.3146773 16.7253756,15.118502 15.4827964,9.78591235" id="Stroke-54" stroke="#F2F9FB"></path>
                                <path d="M38.2242127,44.5588207 C35.8831719,42.807745 33.6396878,40.8635219 31.5159321,38.7261514 C30.0652534,37.2667092 28.7045294,35.75149 27.4331267,34.1868685" id="Stroke-56" stroke="#F2F9FB"></path>
                                <path d="M60.2774118,54.8598566 C53.2219819,53.1954741 46.407276,50.2357928 40.2073665,45.9801753" id="Stroke-58" stroke="#F2F9FB"></path>
                                <path d="M27.8703258,29.657753 C29.0140814,28.2827729 30.2278371,26.9466773 31.5119095,25.6545657 C37.9246697,19.2019761 45.4241719,14.5097052 53.4177919,11.5783904" id="Stroke-60" stroke="#F2F9FB"></path>
                                <path d="M15.4788054,54.5963665 C16.7030136,49.3418645 18.6322896,44.2202709 21.2666335,39.3836175" id="Stroke-62" stroke="#F2F9FB"></path>
                                <path d="M32.3490905,48.1854343 C27.109543,51.2751554 21.5054253,53.5001753 15.7407195,54.8598566" id="Stroke-64" stroke="#F2F9FB"></path>
                                <path d="M58.4064796,16.9152191 C55.4880181,24.8718725 50.8531312,32.3354582 44.5024525,38.7262151 C42.4170226,40.8247012 40.2169321,42.7367331 37.9221357,44.4626295" id="Stroke-66" stroke="#F2F9FB"></path>
                                <path d="M61.4560724,36.5810677 C59.8191493,40.8111873 57.3035837,44.7761275 53.9090588,48.1919044 C43.5465249,58.6193147 28.0955294,60.8057689 15.5991041,54.7509482" id="Stroke-68" stroke="#F2F9FB"></path>
                                <path d="M62.2103937,14.1887171 C63.9233348,19.7004303 64.2001674,25.5668845 63.0408914,31.1933386" id="Stroke-70" stroke="#F2F9FB"></path>
                                <path d="M15.7112941,9.51324303 C26.2635566,11.9961116 36.2795747,17.37651 44.506,25.654757 C52.72419,33.9240797 58.0685792,43.9900558 60.5391674,54.5962709" id="Stroke-72" stroke="#F2F9FB"></path>
                                <path d="M60.4190905,54.7509163 C47.9226652,60.8057371 32.4716697,58.6192829 22.1091357,48.1918725 C11.7462851,37.7644622 9.57375113,22.2167331 15.5909005,9.64207171" id="Stroke-74" stroke="#F2F9FB"></path>
                                <path d="M65.7542624,16.7949323 C72.4007783,28.9090359 70.6187873,44.453259 60.4079729,54.7276813 C48.0385611,67.1748526 27.9834027,67.1748526 15.613991,54.7276813 C3.24426244,42.2808287 3.24426244,22.1001116 15.613991,9.65325896 C24.8096471,0.400031873 38.2524977,-1.97415139 49.6279729,2.53039044" id="Stroke-76" stroke="#1E96C7"></path>
                                <path d="M60.3263801,54.8076494 L69.010181,63.5458167" id="Stroke-78" stroke="#1E96C7"></path>
                                <path d="M7.56221719,1.71314741 L15.520362,9.72111554" id="Stroke-80" stroke="#1E96C7"></path>
                                <path id="Stroke-82" stroke="#1E96C7"></path>
                                <path d="M23.1221719,80 L23.1221719,79.3625498 C23.1221719,76.9083665 25.1176471,74.9003984 27.5565611,74.9003984 L48.4615385,74.9003984 C50.9004525,74.9003984 52.8959276,76.9083665 52.8959276,79.3625498 L52.8959276,80 L23.1221719,80 L23.1221719,80 Z" id="Stroke-84" stroke="#1E96C7"></path>
                                <path d="M54.4462217,12.9301992 L58.9534615,17.4659761 L63.4610181,12.9301992 C65.9502941,10.4253386 65.9502941,6.3638247 63.4610181,3.85896414 C60.9717421,1.35410359 56.9354977,1.35410359 54.4462217,3.85896414 C51.9569457,6.3638247 51.9569457,10.4253386 54.4462217,12.9301992 L54.4462217,12.9301992 Z" id="Stroke-86" stroke="#FD336E"></path>
                                <path d="M59.9211719,8.39458167 C59.9211719,8.93227092 59.4878688,9.36828685 58.9535249,9.36828685 C58.419181,9.36828685 57.9861946,8.93227092 57.9861946,8.39458167 C57.9861946,7.85689243 58.419181,7.42087649 58.9535249,7.42087649 C59.4878688,7.42087649 59.9211719,7.85689243 59.9211719,8.39458167 L59.9211719,8.39458167 Z" id="Stroke-88" stroke="#FD336E"></path>
                                <path d="M33.6064932,13.6731474 L36.7422398,16.8285259 L39.8776697,13.6731474 C41.6092986,11.9306773 41.6092986,9.10517928 39.8776697,7.36270916 C38.1460407,5.62023904 35.3381222,5.62023904 33.6064932,7.36270916 C31.8748643,9.10517928 31.8748643,11.9306773 33.6064932,13.6731474 L33.6064932,13.6731474 Z" id="Stroke-90" stroke="#1E96C7" stroke-linejoin="round"></path>
                                <path d="M37.0588235,10.5179283 C37.0588235,10.6938645 36.9169231,10.8366534 36.7420814,10.8366534 C36.5672398,10.8366534 36.4253394,10.6938645 36.4253394,10.5179283 C36.4253394,10.341992 36.5672398,10.1992032 36.7420814,10.1992032 C36.9169231,10.1992032 37.0588235,10.341992 37.0588235,10.5179283 L37.0588235,10.5179283 Z" id="Stroke-92" stroke="#1E96C7" stroke-linejoin="round"></path>
                                <path d="M33.6064932,51.9201594 L36.7422398,55.0752191 L39.8776697,51.9201594 C41.6092986,50.1776892 41.6092986,47.3521912 39.8776697,45.6097211 C38.1460407,43.867251 35.3381222,43.867251 33.6064932,45.6097211 C31.8748643,47.3521912 31.8748643,50.1776892 33.6064932,51.9201594 L33.6064932,51.9201594 Z" id="Stroke-94" stroke="#1E96C7" stroke-linejoin="round"></path>
                                <path d="M37.0588235,48.7649402 C37.0588235,48.9408765 36.9169231,49.0836653 36.7420814,49.0836653 C36.5672398,49.0836653 36.4253394,48.9408765 36.4253394,48.7649402 C36.4253394,48.589004 36.5672398,48.4462151 36.7420814,48.4462151 C36.9169231,48.4462151 37.0588235,48.589004 37.0588235,48.7649402 L37.0588235,48.7649402 Z" id="Stroke-96" stroke="#1E96C7" stroke-linejoin="round"></path>
                                <path d="M55.7784389,35.9839044 L58.9141855,39.1389641 L62.0496154,35.9839044 C63.7812443,34.2414343 63.7812443,31.4159363 62.0496154,29.6734661 C60.3179864,27.930996 57.5100679,27.930996 55.7784389,29.6734661 C54.04681,31.4159363 54.04681,34.2414343 55.7784389,35.9839044 L55.7784389,35.9839044 Z" id="Stroke-98" stroke="#1E96C7" stroke-linejoin="round"></path>
                                <path d="M59.2307692,32.8286853 C59.2307692,33.0046215 59.0888688,33.1474104 58.9140271,33.1474104 C58.7391855,33.1474104 58.5972851,33.0046215 58.5972851,32.8286853 C58.5972851,32.652749 58.7391855,32.5099602 58.9140271,32.5099602 C59.0888688,32.5099602 59.2307692,32.652749 59.2307692,32.8286853 L59.2307692,32.8286853 Z" id="Stroke-100" stroke="#1E96C7" stroke-linejoin="round"></path>
                                <path d="M17.6345837,35.7286056 L21.9739502,40.0951394 L26.3136335,35.7286056 C28.7104208,33.3168127 28.7104208,29.407012 26.3136335,26.9952191 C23.9168462,24.5834263 20.031371,24.5834263 17.6345837,26.9952191 C15.2377964,29.407012 15.2377964,33.3168127 17.6345837,35.7286056 L17.6345837,35.7286056 Z" id="Stroke-102" stroke="#1E96C7" stroke-linejoin="round"></path>
                                <path d="M22.9604434,31.3619124 C22.9604434,31.9101195 22.518905,32.3544223 21.9741086,32.3544223 C21.4293122,32.3544223 20.9877738,31.9101195 20.9877738,31.3619124 C20.9877738,30.8137052 21.4293122,30.3694024 21.9741086,30.3694024 C22.518905,30.3694024 22.9604434,30.8137052 22.9604434,31.3619124 L22.9604434,31.3619124 Z" id="Stroke-104" stroke="#1E96C7" stroke-linejoin="round"></path>
                                <path d="M64.80619,59.3155378 C49.956371,74.1722709 25.9495385,74.1458167 11.1326606,59.2358566 C-3.68453394,44.3262151 -3.71082353,20.1690837 11.0534751,5.22629482" id="Stroke-106" stroke="#1E96C7"></path>
                            </g>
                        </g>
                    </g>
                </g>
            </g>
        </g>
    </g>
</svg>