<?xml version="1.0" encoding="UTF-8" standalone="no"?>
<svg width="83px" height="84px" viewBox="0 0 83 84" version="1.1" xmlns="http://www.w3.org/2000/svg" xmlns:xlink="http://www.w3.org/1999/xlink">
    <!-- Generator: Sketch 3.8.2 (29753) - http://www.bohemiancoding.com/sketch -->
    <title>Group 173</title>
    <desc>Created with Sketch.</desc>
    <defs></defs>
    <g id="Page-1" stroke="none" stroke-width="1" fill="none" fill-rule="evenodd">
        <g id="pricing-page" transform="translate(-1057.000000, -3774.000000)">
            <g id="block-feature" transform="translate(0.000000, 3733.000000)">
                <g id="illustrations" transform="translate(271.000000, 17.000000)">
                    <g id="Group-74" transform="translate(737.000000, 6.000000)">
                        <g id="feature-icons/illus-feat-support" transform="translate(30.000000, 0.000000)">
                            <g id="Group-173" transform="translate(20.000000, 20.000000)">
                                <g id="Group" transform="translate(0.821318, 0.022417)">
                                    <path d="M39.7407914,59.5066228 C28.8488707,59.5066228 20.0179835,50.6694454 20.0179835,39.7697664 C20.0179835,28.8700874 28.8488707,20.03291 39.7407914,20.03291 C50.6327121,20.03291 59.4635994,28.8700874 59.4635994,39.7697664 C59.4635994,50.6694454 50.6327121,59.5066228 39.7407914,59.5066228 M39.7407914,2.76316058 C19.3178238,2.76316058 2.76052649,19.331018 2.76052649,39.7697664 C2.76052649,60.2085148 19.3178238,76.7763722 39.7407914,76.7763722 C60.163759,76.7763722 76.7210563,60.2085148 76.7210563,39.7697664 C76.7210563,19.331018 60.163759,2.76316058 39.7407914,2.76316058" id="Fill-2414" stroke="#2897C5" stroke-width="1.6875" fill="#FCFCFD"></path>
                                    <path d="M39.7407914,63.1414975 C26.84294,63.1414975 16.385696,52.6768049 16.385696,39.7697664 C16.385696,26.8627279 26.84294,16.3980353 39.7407914,16.3980353 C52.6386428,16.3980353 63.0958868,26.8627279 63.0958868,39.7697664 C63.0958868,52.6768049 52.6386428,63.1414975 39.7407914,63.1414975 M39.7407914,6.41268986 C21.3319025,6.41268986 6.40745807,21.346653 6.40745807,39.7697664 C6.40745807,58.1928798 21.3319025,73.1268429 39.7407914,73.1268429 C58.1496803,73.1268429 73.0741247,58.1928798 73.0741247,39.7697664 C73.0741247,21.346653 58.1496803,6.41268986 39.7407914,6.41268986" id="Fill-2414" fill="#F2F9FB"></path>
                                    <path d="M1.44513847,30.258822 C1.75823804,28.9845612 3.01063635,28.1802843 4.30001492,28.4257614 L21.3183328,31.665073 C22.0049331,31.7958297 22.6040134,32.2127708 22.96642,32.8122778 C23.1735095,33.1527386 23.1759748,46.3863008 22.9688853,46.7279951 C22.6064787,47.3275021 22.0061658,47.7432097 21.3183328,47.8739664 L4.30001492,51.1132779 C3.0131017,51.3587551 1.75823804,50.5532446 1.44513847,49.2802174 C0.698137117,46.2345737 0.29505223,43.0458379 0.29505223,39.7695197 C0.29505223,36.4944351 0.696904442,33.3044656 1.44513847,30.258822" id="Fill-2416" stroke="#FFFFFF" stroke-width="3.75"></path>
                                    <path d="M30.2367401,78.0926972 C28.9633863,77.7793746 28.1596818,76.5260842 28.4049843,75.2357872 L31.6419901,58.2053472 C31.7726537,57.5182579 32.189298,56.9187509 32.7871457,56.5560861 C33.1285968,56.3488492 46.3527395,56.346382 46.6941906,56.553619 C47.2932709,56.9162838 47.7086825,57.5170243 47.8393462,58.2053472 L51.076352,75.2357872 C51.3216544,76.5236171 50.5167173,77.7793746 49.2445962,78.0926972 C46.2011204,78.8402306 43.0146543,79.2436026 39.7406681,79.2436026 C36.466682,79.2436026 33.2802159,78.8402306 30.2367401,78.0926972" id="Fill-2417" stroke="#FFFFFF" stroke-width="3.75"></path>
                                    <path d="M78.0364443,49.2807108 C77.7233448,50.5549716 76.4709465,51.3592485 75.1815679,51.1137713 L58.16325,47.8744598 C57.4766497,47.7437031 56.8775694,47.326762 56.5151628,46.727255 C56.3080734,46.3867942 56.305608,33.153232 56.5126975,32.8115377 C56.8751041,32.2120306 57.475417,31.7963231 58.16325,31.6655664 L75.1815679,28.4262549 C76.4684811,28.1807777 77.7233448,28.9862882 78.0364443,30.2593154 C78.7834457,33.3049591 79.1865306,36.4936949 79.1865306,39.7700131 C79.1865306,43.0450977 78.7846784,46.2350671 78.0364443,49.2807108" id="Fill-2418" stroke="#FFFFFF" stroke-width="3.75"></path>
                                    <path d="M49.2448428,1.44683561 C50.5181965,1.76015821 51.321901,3.01344859 51.0765985,4.30374558 L47.8395927,21.3341856 C47.7089291,22.0212749 47.2922848,22.6207819 46.6944371,22.9834466 C46.352986,23.1906836 33.1288433,23.1931507 32.7873922,22.9859137 C32.1883119,22.623249 31.7729003,22.0225084 31.6422367,21.3341856 L28.4052308,4.30374558 C28.1599284,3.0159157 28.9648655,1.76015821 30.2369866,1.44683561 C33.2804624,0.699302175 36.4669286,0.295930172 39.7409147,0.295930172 C43.0149008,0.295930172 46.201367,0.699302175 49.2448428,1.44683561" id="Fill-2419" stroke="#FFFFFF" stroke-width="3.75"></path>
                                </g>
                                <g id="Group" transform="translate(0.821318, 0.022417)" stroke="#FE336F" stroke-width="1.6875" fill="#FFFFFF">
                                    <path d="M1.44513847,30.258822 C1.75823804,28.9845612 3.01063635,28.1802843 4.30001492,28.4257614 L21.3183328,31.665073 C22.0049331,31.7958297 22.6040134,32.2127708 22.96642,32.8122778 C23.1735095,33.1527386 23.1759748,46.3863008 22.9688853,46.7279951 C22.6064787,47.3275021 22.0061658,47.7432097 21.3183328,47.8739664 L4.30001492,51.1132779 C3.0131017,51.3587551 1.75823804,50.5532446 1.44513847,49.2802174 C0.698137117,46.2345737 0.29505223,43.0458379 0.29505223,39.7695197 C0.29505223,36.4944351 0.696904442,33.3044656 1.44513847,30.258822" id="Fill-2416"></path>
                                    <path d="M30.2367401,78.0926972 C28.9633863,77.7793746 28.1596818,76.5260842 28.4049843,75.2357872 L31.6419901,58.2053472 C31.7726537,57.5182579 32.189298,56.9187509 32.7871457,56.5560861 C33.1285968,56.3488492 46.3527395,56.346382 46.6941906,56.553619 C47.2932709,56.9162838 47.7086825,57.5170243 47.8393462,58.2053472 L51.076352,75.2357872 C51.3216544,76.5236171 50.5167173,77.7793746 49.2445962,78.0926972 C46.2011204,78.8402306 43.0146543,79.2436026 39.7406681,79.2436026 C36.466682,79.2436026 33.2802159,78.8402306 30.2367401,78.0926972" id="Fill-2417"></path>
                                    <path d="M78.0364443,49.2807108 C77.7233448,50.5549716 76.4709465,51.3592485 75.1815679,51.1137713 L58.16325,47.8744598 C57.4766497,47.7437031 56.8775694,47.326762 56.5151628,46.727255 C56.3080734,46.3867942 56.305608,33.153232 56.5126975,32.8115377 C56.8751041,32.2120306 57.475417,31.7963231 58.16325,31.6655664 L75.1815679,28.4262549 C76.4684811,28.1807777 77.7233448,28.9862882 78.0364443,30.2593154 C78.7834457,33.3049591 79.1865306,36.4936949 79.1865306,39.7700131 C79.1865306,43.0450977 78.7846784,46.2350671 78.0364443,49.2807108" id="Fill-2418"></path>
                                    <path d="M49.2448428,1.44683561 C50.5181965,1.76015821 51.321901,3.01344859 51.0765985,4.30374558 L47.8395927,21.3341856 C47.7089291,22.0212749 47.2922848,22.6207819 46.6944371,22.9834466 C46.352986,23.1906836 33.1288433,23.1931507 32.7873922,22.9859137 C32.1883119,22.623249 31.7729003,22.0225084 31.6422367,21.3341856 L28.4052308,4.30374558 C28.1599284,3.0159157 28.9648655,1.76015821 30.2369866,1.44683561 C33.2804624,0.699302175 36.4669286,0.295930172 39.7409147,0.295930172 C43.0149008,0.295930172 46.201367,0.699302175 49.2448428,1.44683561" id="Fill-2419"></path>
                                </g>
                            </g>
                        </g>
                    </g>
                </g>
            </g>
        </g>
    </g>
</svg>