<?xml version="1.0" encoding="UTF-8" standalone="no"?>
<svg width="34px" height="34px" viewBox="0 0 34 34" version="1.1" xmlns="http://www.w3.org/2000/svg" xmlns:xlink="http://www.w3.org/1999/xlink">
    <!-- Generator: Sketch 3.8.3 (29802) - http://www.bohemiancoding.com/sketch -->
    <title>operations</title>
    <desc>Created with Sketch.</desc>
    <defs>
        <ellipse id="path-1" cx="15.2107623" cy="15" rx="15.0672646" ry="15"></ellipse>
        <filter x="-50%" y="-50%" width="200%" height="200%" filterUnits="objectBoundingBox" id="filter-2">
            <feGaussianBlur stdDeviation="0" in="SourceGraphic"></feGaussianBlur>
        </filter>
        <mask id="mask-3" maskContentUnits="userSpaceOnUse" maskUnits="objectBoundingBox" x="-1.2" y="-1.2" width="32.5345291" height="32.4">
            <rect x="-1.05650224" y="-1.2" width="32.5345291" height="32.4" fill="white"></rect>
            <use xlink:href="#path-1" fill="black"></use>
        </mask>
    </defs>
    <g id="Pricing" stroke="none" stroke-width="1" fill="none" fill-rule="evenodd">
        <g id="pricing-page-final?" transform="translate(-670.000000, -644.000000)">
            <g id="operations" transform="translate(672.000000, 646.000000)">
                <g id="Oval-15" filter="url(#filter-2)" stroke-width="2.4" stroke="#24B3E4">
                    <use mask="url(#mask-3)" xlink:href="#path-1"></use>
                </g>
                <path d="M28.0300649,16.5714286 C27.251613,22.9309958 21.809049,27.8571429 15.2107623,27.8571429 C8.61247563,27.8571429 3.1699117,22.9309958 2.39145974,16.5714286 L8.41451794,16.5714286 C9.36677401,16.5714286 9.99791758,15.8871019 10.5042756,14.7286457 C10.8230828,13.9992721 11.0542302,13.2242804 11.4540827,11.6797373 C11.4682784,11.6249026 11.5391037,11.3508892 11.558924,11.2743749 C11.9020132,9.94991162 12.0995813,9.28313767 12.3351645,8.73130749 C12.4621491,8.43385883 12.4697357,8.13409527 12.525995,8.26778739 C12.6677039,8.60453825 12.7564539,9.08349777 12.8864279,9.79261421 C13.107161,10.9968968 13.2710722,12.4307586 13.5147539,15.0450197 C13.5347807,15.2598713 13.6023089,15.9889175 13.6099549,16.0712071 C13.8348846,18.4919912 13.9703155,19.7233375 14.1545391,20.809763 C14.2736504,21.5122004 14.4026482,22.0553445 14.5561053,22.4596342 C14.6548368,22.7197467 14.7671742,22.9340242 14.9104129,23.1095744 C15.1386876,23.3893429 15.447356,23.5714286 15.8273543,23.5714286 C16.3771271,23.5714286 16.7760583,23.2510351 17.0606029,22.7609799 C17.2422109,22.4482064 17.3891093,22.045007 17.5227334,21.5330137 C17.7190884,20.7806611 17.8540132,19.9908962 18.100481,18.3086019 C18.1055933,18.273707 18.1386146,18.0481237 18.1482408,17.9824591 C18.395873,16.2932456 18.5395232,15.4660599 18.7350285,14.7433386 C18.8455471,14.3347866 18.9588673,14.0369747 19.063631,13.8652002 C19.0945979,13.8144258 19.1680339,14.2895631 19.3890151,15.4802324 C19.3985105,15.5313945 19.4082504,15.5844247 19.4206701,15.652459 C19.4240843,15.6711613 19.4459996,15.7914108 19.4524036,15.82645 C19.5938548,16.6003946 19.6806965,16.9803885 19.8301974,17.3599693 C20.101207,18.0480594 20.547713,18.5030692 21.2575673,18.5030692 C21.9752332,18.5030692 22.4122373,18.1957089 22.8182896,17.6140097 C22.8543969,17.5622834 22.9700638,17.391062 22.9705486,17.3903524 C23.0227194,17.3139913 23.0631351,17.2577397 23.1033336,17.2062766 C23.4362706,16.7800421 23.8937239,16.5714286 24.9899103,16.5714286 L28.0300649,16.5714286 Z M28.1247798,14.8571429 C28.0478483,7.82215088 22.2955145,2.14285714 15.2107623,2.14285714 C8.12580275,2.14285714 2.3733396,7.82248342 2.29673816,14.8577607 C4.79681732,14.8583951 8.3968995,14.8592312 8.39775861,14.8587854 C8.42098198,14.8467338 8.45654033,14.8184141 8.50167494,14.7694763 C8.6318061,14.6283796 8.77672615,14.3845806 8.92531553,14.0446349 C9.19462181,13.4285105 9.4104528,12.7048718 9.78659833,11.2519034 C9.80067242,11.1975382 9.87154091,10.9233578 9.89150356,10.8462939 C10.2569839,9.43539183 10.4689742,8.71994433 10.7503833,8.0607717 C11.2066411,6.99203325 11.7666222,6.36021205 12.6477018,6.36021205 C13.3352364,6.36021205 13.7580432,6.82424606 14.0643087,7.55204177 C14.2636916,8.02584648 14.4300589,8.66448562 14.5804302,9.48488649 C14.8134451,10.7561769 14.9808724,12.2207956 15.2293604,14.8866209 C15.249443,15.1020697 15.3170039,15.8314703 15.3246079,15.9133077 C15.5453227,18.2887297 15.7581044,21.4773854 15.8560972,21.1019167 C16.0305468,20.4334969 16.159933,19.6761516 16.3965366,18.0611862 C16.4016238,18.0264624 16.4346601,17.8007771 16.444318,17.7348959 C16.7024145,15.9743001 16.852495,15.1100865 17.0722952,14.297555 C17.2213863,13.7464128 17.3869971,13.311178 17.5917267,12.9754959 C17.9001357,12.4698172 18.3254239,12.1459263 18.8898543,12.1459263 C19.680788,12.1459263 20.2384964,12.6188935 20.5865159,13.3691623 C20.7995367,13.8283978 20.9263565,14.3283763 21.0823274,15.1687632 C21.0921778,15.2218382 21.102197,15.2763897 21.1148921,15.3459319 C21.1183804,15.3650407 21.1402517,15.4850484 21.1465616,15.5195731 C21.2669564,16.1783087 21.3314342,16.7400188 21.4042336,16.6357284 C21.4314417,16.5967508 21.6778682,16.2385861 21.7439899,16.1539355 C22.4135548,15.2967414 23.3775182,14.8571429 24.9899103,14.8571429 L28.1247798,14.8571429 Z" id="Path-7" fill="#24B3E4"></path>
            </g>
        </g>
    </g>
</svg>