<?xml version="1.0" encoding="UTF-8" standalone="no"?>
<svg width="34px" height="34px" viewBox="0 0 34 34" version="1.1" xmlns="http://www.w3.org/2000/svg" xmlns:xlink="http://www.w3.org/1999/xlink">
    <!-- Generator: Sketch 3.8.3 (29802) - http://www.bohemiancoding.com/sketch -->
    <title>records</title>
    <desc>Created with Sketch.</desc>
    <defs>
        <path d="M15,30 C23.2842712,30 30,23.2842712 30,15 C30,6.71572875 23.2842712,0 15,0 C6.71572875,0 0,6.71572875 0,15 C0,23.2842712 6.71572875,30 15,30 Z" id="path-1"></path>
        <filter x="-50%" y="-50%" width="200%" height="200%" filterUnits="objectBoundingBox" id="filter-2">
            <feGaussianBlur stdDeviation="0" in="SourceGraphic"></feGaussianBlur>
        </filter>
        <mask id="mask-3" maskContentUnits="userSpaceOnUse" maskUnits="objectBoundingBox" x="-1.2" y="-1.2" width="32.4" height="32.4">
            <rect x="-1.2" y="-1.2" width="32.4" height="32.4" fill="white"></rect>
            <use xlink:href="#path-1" fill="black"></use>
        </mask>
    </defs>
    <g id="Pricing" stroke="none" stroke-width="1" fill="none" fill-rule="evenodd">
        <g id="pricing-page-final?" transform="translate(-670.000000, -534.000000)">
            <g id="records" transform="translate(672.000000, 536.000000)">
                <g id="Oval-15" filter="url(#filter-2)" stroke-width="2.4" stroke="#C83D92">
                    <use mask="url(#mask-3)" xlink:href="#path-1"></use>
                </g>
                <path d="M15,27.8571429 C22.1008039,27.8571429 27.8571429,22.1008039 27.8571429,15 C27.8571429,7.89919607 22.1008039,2.14285714 15,2.14285714 C7.89919607,2.14285714 2.14285714,7.89919607 2.14285714,15 C2.14285714,22.1008039 7.89919607,27.8571429 15,27.8571429 Z M8.66992723,17.6023612 C8.66992723,16.8945154 8.51031734,16.3393506 8.19109278,15.93685 C7.87186821,15.5343495 7.40691767,15.3331022 6.79622719,15.3331022 L6.79622719,14.6668978 C7.40691767,14.6668978 7.87186821,14.4552412 8.19109278,14.0319216 C8.51031734,13.6086021 8.66992723,13.0916049 8.66992723,12.4809144 L8.66992723,7.52601875 C8.66992723,6.85981096 8.85729536,6.32546481 9.23203724,5.92296427 C9.60677912,5.52046374 10.1688835,5.31921648 10.9183673,5.31921648 L13.0627129,5.31921648 L13.0627129,6.19360983 L11.9593117,6.19360983 C11.5429319,6.19360983 11.2375912,6.29076368 11.0432806,6.48507428 C10.84897,6.67938489 10.7518162,6.99860467 10.7518162,7.44274319 L10.7518162,12.2935444 C10.7518162,12.7515622 10.6685414,13.1401776 10.5019895,13.4594022 C10.3354375,13.7786268 10.1272507,14.0388603 9.87742281,14.2401105 C9.62759489,14.4413608 9.35001247,14.5940311 9.04466724,14.6981261 C8.739322,14.8022211 8.44786047,14.8681469 8.17027389,14.8959056 L8.17027389,15.0208189 C8.43398114,15.0485775 8.71850311,15.1179732 9.02384835,15.2290078 C9.32919358,15.3400424 9.61024578,15.5065919 9.86701336,15.7286611 C10.1237809,15.9507304 10.3354375,16.224843 10.5019895,16.5510073 C10.6685414,16.8771715 10.7518162,17.2623171 10.7518162,17.7064556 L10.7518162,22.5572568 C10.7518162,22.987516 10.84897,23.303266 11.0432806,23.5045163 C11.2375912,23.7057665 11.556811,23.8063902 12.0009495,23.8063902 L13.0627129,23.8063902 L13.0627129,24.6807835 L10.9183673,24.6807835 C10.2244008,24.6807835 9.67617556,24.4968852 9.27367502,24.1290829 C8.87117448,23.7612807 8.66992723,23.2165252 8.66992723,22.4948001 L8.66992723,17.6023612 Z M21.1065272,12.37682 C21.1065272,13.0846657 21.2696068,13.6398306 21.5957711,14.0423311 C21.9219353,14.4448316 22.3834161,14.6460789 22.9802272,14.6460789 L22.9802272,15.3122833 C22.3834161,15.3122833 21.9219353,15.5239399 21.5957711,15.9472595 C21.2696068,16.370579 21.1065272,16.8875762 21.1065272,17.4982667 L21.1065272,22.4739813 C21.1065272,23.140189 20.919159,23.6745352 20.5444171,24.0770357 C20.1696753,24.4795363 19.6006313,24.6807835 18.8372682,24.6807835 L16.7137415,24.6807835 L16.7137415,23.8063902 L17.8171427,23.8063902 C18.2335225,23.8063902 18.5388632,23.7092363 18.7331738,23.5149257 C18.9274844,23.3206151 19.0246382,23.0013953 19.0246382,22.5572568 L19.0246382,17.6856367 C19.0246382,17.2276189 19.0940338,16.8390035 19.2328271,16.5197789 C19.3716204,16.2005544 19.5555188,15.9403208 19.7845277,15.7390706 C20.0135366,15.5378203 20.2668306,15.38515 20.5444171,15.281055 C20.8220037,15.17696 21.0995861,15.1110342 21.3771727,15.0832756 L21.3771727,14.9583622 C21.0995861,14.9306036 20.8220037,14.861208 20.5444171,14.7501733 C20.2668306,14.6391387 20.0170064,14.4725892 19.7949371,14.25052 C19.5728679,14.0284507 19.3889695,13.7543381 19.2432366,13.4281739 C19.0975036,13.1020096 19.0246382,12.716864 19.0246382,12.2727255 L19.0246382,7.44274319 C19.0246382,7.01248399 18.9309542,6.696734 18.7435832,6.49548373 C18.5562123,6.29423346 18.2404623,6.19360983 17.7963238,6.19360983 L16.7137415,6.19360983 L16.7137415,5.31921648 L18.8580871,5.31921648 C19.5520536,5.31921648 20.1002788,5.50311483 20.5027794,5.87091705 C20.9052799,6.23871927 21.1065272,6.78347476 21.1065272,7.50519986 L21.1065272,12.37682 Z" id="Path-10" fill="#C83D92"></path>
            </g>
        </g>
    </g>
</svg>