<?xml version="1.0" encoding="UTF-8" standalone="no"?>
<svg width="33px" height="33px" viewBox="0 0 33 33" version="1.1" xmlns="http://www.w3.org/2000/svg" xmlns:xlink="http://www.w3.org/1999/xlink">
    <!-- Generator: Sketch 3.8.3 (29802) - http://www.bohemiancoding.com/sketch -->
    <title>support</title>
    <desc>Created with Sketch.</desc>
    <defs>
        <ellipse id="path-1" cx="14.8915435" cy="14.8083414" rx="14.8915435" ry="14.8083414"></ellipse>
        <filter x="-50%" y="-50%" width="200%" height="200%" filterUnits="objectBoundingBox" id="filter-2">
            <feGaussianBlur stdDeviation="0" in="SourceGraphic"></feGaussianBlur>
        </filter>
        <mask id="mask-3" maskContentUnits="userSpaceOnUse" maskUnits="objectBoundingBox" x="-1.2" y="-1.2" width="32.183087" height="32.0166827">
            <rect x="-1.2" y="-1.2" width="32.183087" height="32.0166827" fill="white"></rect>
            <use xlink:href="#path-1" fill="black"></use>
        </mask>
    </defs>
    <g id="Pricing" stroke="none" stroke-width="1" fill="none" fill-rule="evenodd">
        <g id="pricing-page-final?" transform="translate(-670.000000, -675.000000)">
            <g id="support" transform="translate(672.000000, 677.000000)">
                <g id="Path" filter="url(#filter-2)" stroke-width="2.4" stroke="#8F9DAE">
                    <use mask="url(#mask-3)" xlink:href="#path-1"></use>
                </g>
                <path d="M15,28 C22.1797017,28 28,22.1797017 28,15 C28,7.82029825 22.1797017,2 15,2 C7.82029825,2 2,7.82029825 2,15 C2,22.1797017 7.82029825,28 15,28 Z M14.9622137,21.2685721 C18.482433,21.2685721 21.3361346,18.4308147 21.3361346,14.9302636 C21.3361346,11.4297125 18.482433,8.59195517 14.9622137,8.59195517 C11.4419944,8.59195517 8.58829282,11.4297125 8.58829282,14.9302636 C8.58829282,18.4308147 11.4419944,21.2685721 14.9622137,21.2685721 Z M10.0684837,24.9738994 C12.5880363,26.2129823 15.572477,26.5323437 18.4770984,25.6443118 C19.5809123,25.306842 20.5967785,24.8183705 21.5087422,24.2087022 L18.8643432,21.5643033 C17.7792062,22.1472668 16.5370183,22.4781897 15.2171049,22.4781897 C14.2320348,22.4781897 13.2902566,22.2938706 12.4247448,21.9580228 L10.0684837,24.9738994 L10.0684837,24.9738994 Z M20.3301842,5.07159215 C17.7915673,3.79494228 14.7699489,3.4568855 11.8300976,4.35568823 C10.7570062,4.6837652 9.76703492,5.15455518 8.87484318,5.74067327 L11.6524502,8.51828029 C12.7178484,7.96252004 13.9305537,7.64811457 15.2171049,7.64811457 C16.1734155,7.64811457 17.0889252,7.82182819 17.933464,8.13925414 L20.3301842,5.07159215 L20.3301842,5.07159215 Z M5.680353,21.619687 C5.05868926,20.7041112 4.56212869,19.6815759 4.22184008,18.568542 C3.32248928,15.6268981 3.68155784,12.5989243 4.99194928,10.0583022 L8.07421203,12.4664298 C7.72484233,13.3397885 7.53276523,14.2923487 7.53276523,15.2895203 C7.53276523,16.5841462 7.85652615,17.8035762 8.42792617,18.8721138 L5.680353,21.619687 L5.680353,21.619687 Z M24.225203,8.90896691 C24.823013,9.80503702 25.3017062,10.8018253 25.6326196,11.8841944 C26.5236187,14.7985212 26.1794621,17.7975819 24.8987702,20.3235293 L21.9451709,18.0159246 C22.2705006,17.1691213 22.4487083,16.2500158 22.4487083,15.2895203 C22.4487083,13.9617075 22.1081358,12.7129952 21.5091181,11.6250518 L24.225203,8.90896691 L24.225203,8.90896691 Z" id="Oval-15" fill="#8F9DAE"></path>
            </g>
        </g>
    </g>
</svg>